Coordinates
version=1
nRows=60
nColumns=12
inDegrees=yes

Units are S.I. units (second, meters, Newtons, ...)
Angles are in degrees

endheader
time	SC_y	SC_z	SC_x	AC_y	AC_z	AC_x	GH_y	GH_z	GH_yy	EL_x	PS_y
       0.0              -39.91          37.37          49.45          62.07          8.243          1.557         -163.1           62.8          61.23          138.1          61.08
   0.03983              -39.91          37.37          49.46          62.07          8.241          1.556         -163.0          62.79          61.23          138.1          61.09
   0.07966               -39.9          37.36          49.46          62.07          8.238          1.555         -163.0          62.78          61.23          138.1          61.09
    0.1195               -39.9          37.36          49.47          62.07          8.235          1.554         -163.0          62.78          61.23          138.1           61.1
    0.1593              -39.89          37.35          49.47          62.06          8.232          1.553         -163.0          62.77          61.23          138.0           61.1
    0.1991              -39.89          37.35          49.48          62.06          8.229          1.552         -162.9          62.76          61.23          138.0          61.11
     0.239              -39.88          37.34          49.48          62.06          8.226          1.551         -162.9          62.75          61.22          138.0          61.12
    0.2788              -39.88          37.34          49.49          62.06          8.223           1.55         -162.9          62.74          61.22          138.0          61.13
    0.3186              -39.87          37.33           49.5          62.05          8.219          1.548         -162.8          62.73          61.22          137.9          61.14
    0.3585              -39.87          37.32           49.5          62.05          8.215          1.547         -162.8          62.72          61.22          137.9          61.15
    0.3983              -39.86          37.32          49.51          62.05          8.211          1.545         -162.7          62.71          61.22          137.9          61.16
    0.4381              -39.85          37.31          49.52          62.04          8.206          1.543         -162.7          62.69          61.22          137.8          61.17
    0.4779              -39.84           37.3          49.53          62.04          8.201          1.541         -162.6          62.68          61.21          137.8          61.18
    0.5178              -39.84          37.29          49.54          62.03          8.196          1.539         -162.6          62.66          61.21          137.8          61.19
    0.5576              -39.83          37.28          49.55          62.03           8.19          1.537         -162.5          62.65          61.21          137.7          61.21
    0.5974              -39.82          37.27          49.56          62.02          8.184          1.535         -162.5          62.63          61.21          137.7          61.22
    0.6373               -39.8          37.26          49.57          62.02          8.177          1.532         -162.4          62.61           61.2          137.6          61.24
    0.6771              -39.79          37.25          49.58          62.01          8.169          1.529         -162.3          62.59           61.2          137.6          61.26
    0.7169              -39.78          37.24           49.6          62.01          8.161          1.526         -162.2          62.56           61.2          137.5          61.28
    0.7567              -39.76          37.22          49.61           62.0          8.152          1.523         -162.1          62.54          61.19          137.4           61.3
    0.7966              -39.75          37.21          49.63          61.99          8.142          1.519         -162.0          62.51          61.19          137.3          61.33
    0.8364              -39.73          37.19          49.65          61.98          8.132          1.515         -161.9          62.48          61.18          137.3          61.35
    0.8762              -39.71          37.17          49.67          61.97           8.12           1.51         -161.8          62.45          61.18          137.2          61.38
    0.9161              -39.69          37.15          49.69          61.96          8.107          1.505         -161.7          62.41          61.17          137.1          61.41
    0.9559              -39.67          37.12          49.72          61.95          8.092            1.5         -161.5          62.37          61.17          137.0          61.45
    0.9957              -39.64           37.1          49.75          61.94          8.075          1.493         -161.4          62.32          61.16          136.8          61.49
     1.036              -39.61          37.07          49.78          61.92          8.057          1.486         -161.2          62.27          61.15          136.7          61.54
     1.075              -39.58          37.03          49.81          61.91          8.037          1.478         -161.0          62.21          61.14          136.5          61.59
     1.115              -39.54           37.0          49.85          61.89          8.013          1.469         -160.7          62.14          61.13          136.4          61.64
     1.155               -39.5          36.95           49.9          61.87          7.987          1.459         -160.4          62.06          61.12          136.2          61.71
     1.195              -39.45           36.9          49.95          61.84          7.956          1.448         -160.1          61.98          61.11          135.9          61.78
     1.235              -39.39          36.85          50.01          61.82          7.922          1.435         -159.8          61.88           61.1          135.7          61.87
     1.275              -39.33          36.78          50.08          61.78          7.882          1.419         -159.4          61.76          61.08          135.4          61.97
     1.314              -39.25           36.7          50.16          61.75          7.835          1.401         -158.9          61.63          61.06          135.0          62.08
     1.354              -39.16          36.62          50.26           61.7          7.781          1.381         -158.3          61.47          61.04          134.6          62.21
     1.394              -39.06          36.51          50.37          61.65          7.717          1.356         -157.7          61.29          61.01          134.1          62.37
     1.434              -38.93          36.39           50.5          61.59           7.64          1.327         -156.9          61.07          60.98          133.5          62.56
     1.474              -38.79          36.24          50.66          61.52          7.549          1.292         -156.0          60.81          60.94          132.8          62.78
     1.513              -38.61          36.06          50.85          61.43          7.438           1.25         -154.8          60.49          60.89          132.0          63.05
     1.553              -38.39          35.84          51.09          61.32          7.303          1.198         -153.4          60.11          60.83          130.9          63.38
     1.593              -38.12          35.56          51.38          61.19          7.137          1.134         -151.7          59.63          60.76          129.6          63.79
     1.633              -37.78          35.23          51.74          61.02          6.929          1.055         -149.6          59.03          60.68          128.1           64.3
     1.673              -37.36           34.8           52.2          60.81          6.667         0.9549         -146.9          58.28          60.57          126.0          64.95
     1.713              -36.82          34.25          52.78          60.55          6.334         0.8276         -143.5          57.33          60.43          123.5          65.76
     1.752              -36.12          33.56          53.52          60.21          5.908         0.6648         -139.2          56.11          60.25          120.2          66.81
     1.792              -35.24          32.67          54.47          59.77          5.361         0.4557         -133.6          54.54          60.02          116.0          68.15
     1.832               -34.1          31.53          55.69          59.22          4.662         0.1888         -126.4          52.54          59.72          110.7          69.87
     1.872              -32.68          30.09          57.22          58.52          3.784        -0.1469         -117.4          50.03          59.35          104.0          72.02
     1.912              -30.94          28.35          59.08          57.66          2.713         -0.556         -106.5          46.96           58.9          95.78          74.65
     1.952              -28.93          26.32          61.24          56.68          1.473          -1.03         -93.78           43.4          58.37          86.28          77.69
     1.991              -26.75          24.13          63.58           55.6         0.1291         -1.544         -80.03          39.56          57.81          75.99          80.99
     2.031              -24.57          21.94          65.92          54.53         -1.214         -2.057         -66.28          35.71          57.24          65.71          84.28
     2.071              -22.56          19.92          68.08          53.54         -2.455         -2.531         -53.58          32.15          56.72          56.21          87.33
     2.111              -20.82          18.17          69.94          52.69         -3.525          -2.94         -42.63          29.09          56.27          48.01          89.95
     2.151               -19.4          16.74          71.47          51.99         -4.404         -3.276         -33.64          26.57           55.9          41.29          92.11
     2.191              -18.27           15.6          72.69          51.43         -5.102         -3.543         -26.49          24.57           55.6          35.94          93.82
      2.23              -17.38           14.7          73.64           51.0         -5.649         -3.752         -20.89           23.0          55.37          31.75          95.17
      2.27              -16.69          14.01          74.38          50.66         -6.075         -3.915         -16.53          21.78          55.19          28.49          96.21
      2.31              -16.15          13.46          74.96          50.39         -6.408         -4.042         -13.12          20.83          55.05          25.94          97.03
      2.35              -15.72          13.04          75.42          50.18          -6.67         -4.142         -10.44          20.08          54.94          23.93          97.67
